<svg fill="none" height="60" viewBox="0 0 180 60" width="180" xmlns="http://www.w3.org/2000/svg"><path d="m0 0h219v52h-219z" fill="none"/><g fill="#3c3e44"><path d="m108.738 48.9904c-.302-.0925-.614-.1634-.888-.336-.7-.4409-1.089-1.0699-1.178-1.8962-.037-.3638-.034-.7276-.037-1.0883 0-5.6823-.006-11.3614.003-17.0437 0-1.298.703-2.2229 1.872-2.5343.157-.0432.32-.0678.484-.0678 3.166 0 6.336-.034 9.499.0154 2.765.0431 5.201 1.0328 7.276 2.8611 2.05 1.8068 3.308 4.0729 3.74 6.7706.931 5.8025-2.593 11.2412-8.121 12.866-.743.2189-1.502.3669-2.279.4101-.037 0-.077-.0062-.089.0431h-10.285zm2.682-11.497c0 2.1428 0 4.2886-.003 6.4314 0 .1819.04.2343.228.2343 2.168-.0061 4.335-.0061 6.506-.0061.367 0 .73-.0278 1.088-.0864 3.644-.5858 6.117-4.0759 5.473-7.714-.565-3.1818-3.327-5.4972-6.561-5.4972-2.168 0-4.335 0-6.506-.0031-.185 0-.234.0431-.234.2281.006 2.1366.003 4.2733.003 6.4099z"/><path d="m65.268 48.9904c-.2497-.1017-.5179-.0894-.7769-.1264-4.4798-.6505-8.3307-4.1252-9.3605-8.5619-.9773-4.2054.0586-7.9021 3.0986-10.9791 1.8376-1.8591 4.1068-2.9074 6.712-3.2126 4.8005-.5673 9.305 1.9239 11.4755 6.0121 1.076 2.0257 1.5046 4.1839 1.2887 6.4654-.4563 4.8005-3.7891 8.7531-8.4293 10.0171-.6536.1789-1.3165.3053-1.9948.3484-.037 0-.0771-.0061-.0894.0432h-1.9239zm1.0113-18.1135c-3.5919-.0339-6.5856 2.8982-6.6565 6.5117-.0678 3.598 2.7995 6.7736 6.6472 6.7705 3.7677 0 6.5764-3.0214 6.6442-6.5054.074-3.8138-3.04-6.8045-6.6349-6.7768z"/><path d="m91.071 48.9906c-.2313-.1048-.4872-.0863-.7307-.1233-4.6617-.7029-8.5157-4.3287-9.4684-8.9134-.1757-.8417-.262-1.6864-.262-2.5466 0-2.9784 0-5.9567 0-8.935 0-1.2641.9342-2.3216 2.152-2.4419 1.2703-.1264 2.374.6783 2.6453 1.927.0432.1973.0555.3977.0555.5981 0 2.9722.0216 5.9413-.0061 8.9134-.0278 3.1233 2.2013 6.0122 5.5281 6.6041 3.5302.629 7.0049-1.7882 7.6492-5.3246.0771-.4254.1172-.854.1172-1.2856 0-2.9876 0-5.9721 0-8.9597 0-1.2702.8109-2.2353 2.0569-2.4572 1.368-.2436 2.774.8787 2.781 2.2568.012 3.2157.052 6.4346-.016 9.6503-.062 2.9043-1.178 5.4201-3.185 7.5198-1.7417 1.819-3.8722 2.929-6.351 3.3699-.2929.0524-.5889.0709-.8849.1079-.0401.0061-.0925-.0185-.111.0431h-1.967z"/><path d="m25.0644 48.9905c-.3947-.0585-.7924-.1079-1.184-.1788-2.2106-.3977-4.1406-1.3689-5.7778-2.8981-1.8715-1.7482-3.0646-3.8848-3.4778-6.4068-.6166-3.7769.3762-7.1067 2.9968-9.9092 1.7605-1.8839 3.9434-3.0339 6.4901-3.4193 3.4993-.5303 6.6195.3639 9.3326 2.6454.3299.2775.6383.5827.9342.8972.9435.9958.8911 2.4973-.1171 3.4593-.9373.891-2.4881.8386-3.3976-.1264-1.1562-1.2302-2.5652-1.9578-4.2455-2.1459-2.6423-.296-5.3061 1.1253-6.5517 3.4994-2.0627 3.9248.1572 8.7037 4.5106 9.6101 2.3925.4964 4.4983-.1695 6.1786-1.9454 1.1501-1.2148 2.9753-1.0761 3.8571.1726.6135.8695.6413 2.1952-.3423 3.1942-1.9084 1.9423-4.1869 3.1232-6.8939 3.4808-.1881.0247-.3854 0-.5673.0802h-1.745z"/><path d="m4 44.5231c.08633-.0555.06166-.1541.07708-.2312.39464-1.7605 1.9948-3.0308 3.76452-2.9814 1.85297.0524 3.376 1.3627 3.6782 3.1633.4008 2.4018-1.52308 4.56-3.94643 4.4212-1.74815-.0986-3.17873-1.3627-3.52404-3.1078-.00617-.037.0185-.0925-.04933-.1048v-1.1624z"/></g><path d="m105.586 22.0502c-5.303 0-9.65-4.3781-9.5082-9.7952.1388-5.16114 4.4582-9.4313 9.8722-9.24939 5.103.17265 9.342 4.44281 9.182 9.82599-.154 5.0903-4.344 9.234-9.546 9.2186z" fill="#00abdb"/><path d="m37.9054 35.5852c0-2.3309 0-4.6617 0-6.9926 0-1.224.8972-2.2137 2.1397-2.3771 1.1284-.148 2.2445.6074 2.5651 1.7327.0648.2251.0833.4502.0833.6845v13.5813c0 1.1284.74 1.8745 1.8684 1.8776h6.3482c.8509 0 1.5601.3206 2.0472 1.0267.5334.7739.5981 1.6094.1788 2.4511-.4347.8664-1.1808 1.3134-2.1428 1.3227-2.152.0185-4.3071.0185-6.4592 0-1.6248-.0124-3.0893-.5057-4.3287-1.5786-1.4922-1.2949-2.2723-2.9413-2.297-4.9145-.0277-2.2692-.0061-4.5415-.0061-6.8138z" fill="#3c3e44"/><g fill="#00abdb"><path d="m122.491 10.5994c3.234 0 5.818 2.5929 5.818 5.8426 0 3.2033-2.614 5.7901-5.852 5.7901-3.212 0-5.811-2.6083-5.802-5.8364.006-3.3267 2.765-5.8549 5.839-5.7963z"/><path d="m136.06 22.0871c0 2.152-1.736 3.8847-3.891 3.8817-2.13 0-3.875-1.7482-3.885-3.8817-.009-2.1613 1.752-3.891 3.959-3.8879 2.1 0 3.814 1.7482 3.814 3.8848z"/><path d="m96.0873 22.0781c.0031 2.1397-1.7327 3.8909-3.8632 3.8909-2.1489 0-3.9063-1.7297-3.9094-3.8509 0-2.1582 1.7173-3.9186 3.8323-3.9186 2.2076 0 3.9372 1.7019 3.9403 3.8786z"/></g></svg>