<svg fill="none" height="60" viewBox="0 0 180 60" width="180" xmlns="http://www.w3.org/2000/svg"><path d="m0 0h180v60h-180z" fill="none"/><path d="m37.1047 8.01325h1.9706c.1016.06624.2165.07507.3314.06624.2121-.01325.4197.01324.6274.03532.592.06624 1.1797.14573 1.7673.26055.782.15014 1.5508.33561 2.3108.57407.8041.25171 1.5817.56524 2.3505.9141.4242.19427.8395.40187 1.246.62707.6186.3444 1.2283.7065 1.7982 1.1261.3093.2296.6363.4371.9323.68.327.2694.6628.5343.9676.8346.2828.2782.5965.5299.8749.8126.1413.1413.2518.3179.4064.4371.1723.1369.2916.318.4374.477.274.2914.5082.6138.76.9229.3579.4858.7025.9848 1.0339 1.4882.5567.8523 1.025 1.7487 1.4404 2.6716.5302 1.1835.9278 2.4111 1.215 3.6741.1635.733.2916 1.4705.3667 2.2212.0575.5653.0972 1.1349.1193 1.7002.0309.8037-.0177 1.6029-.0928 2.4022-.0795.8391-.2076 1.6648-.3932 2.4862-.539 2.3493-1.4713 4.5308-2.7968 6.5444-.2342.3577-.4772.711-.7379 1.051-.0486.0663-.1369.1149-.1193.2164-.0309 0-.0441.0133-.0662.0398-.4374.5696-.9146 1.1084-1.4095 1.6295-.4285.4504-.8969.8655-1.3696 1.2717-.4949.4284-1.0118.8258-1.5465 1.2012-.9897.6889-2.0324 1.2939-3.1325 1.7929-.6584.3002-1.3255.5696-2.0148.7948-.8925.2959-1.7983.5299-2.7261.6978-.8792.1589-1.7629.2737-2.651.3002-.813.0265-1.6303.0265-2.4433-.0309-.5125-.0353-1.0251-.0971-1.5332-.1766-.7511-.1148-1.4934-.2738-2.2268-.4681-1.2769-.34-2.5008-.8125-3.6805-1.3999-.9057-.4504-1.7717-.9803-2.6024-1.5676-.7555-.5344-1.4757-1.1173-2.1473-1.7532-.7422-.6977-1.4315-1.444-2.0545-2.2521-.5876-.7551-1.1222-1.5456-1.5994-2.3758-1.1311-1.9827-1.9087-4.0936-2.324-6.3413-.1723-.9317-.2828-1.8723-.3137-2.8173-.0221-.6624-.0442-1.3292.0221-1.9961.0265-.287.0441-.5784.0706-.8655.0531-.5696.1414-1.1305.2431-1.6913.1458-.7772.3402-1.5412.5743-2.2963.1768-.5608.38-1.1128.6053-1.656.3137-.7551.6672-1.4881 1.087-2.1947.4639-.786.9631-1.5456 1.5243-2.2698.3755-.4857.7643-.9582 1.1841-1.3998.402-.424.813-.8391 1.2504-1.2321.433-.393.8792-.7728 1.3476-1.1216.9587-.7198 1.9749-1.3557 3.0442-1.9033.5169-.26497 1.0471-.49019 1.5861-.70657.7247-.29145 1.4581-.55199 2.2136-.74629.6893-.17664 1.3874-.34003 2.0943-.43277.6141-.0839 1.2239-.17222 1.8424-.19871.1149-.00442.2298-.02208.3358-.07066zm-.7776 21.68675v3.5725c0 .1236.0044.2561.0309.3753.1944.9097 1.0207 1.4926 1.9574 1.3822.8527-.0971 1.5154-.8611 1.5154-1.7531 0-2.2919 0-4.5882 0-6.8801 0-.1678-.0132-.3312-.0441-.4901-.2033-1.051-1.1621-1.5809-2.0943-1.3911-.7865.159-1.4006.8656-1.3785 1.7399.0309 1.1482.0088 2.3007.0088 3.4489zm3.7821-9.7107c.0751-1.0996-.8925-1.9872-1.8557-2.049-1.4448-.0927-2.2578.9848-2.2489 2.0225.0088 1.2232.8792 2.0667 2.0633 2.0755 1.1002.0088 2.0855-.8964 2.0413-2.0534z" fill="#3760a6"/><path d="m101.056 8.01318h1.762c.076.05741.168.06183.252.06624.486.01325.964.08391 1.441.1369.623.07065 1.237.18988 1.851.32678.747.17222 1.48.38419 2.2.64473.822.29586 1.626.64031 2.404 1.04217.914.4725 1.789 1.0068 2.624 1.6074.778.5652 1.507 1.1879 2.21 1.8414.34.318.64.6669.949 1.0113.385.4239.743.8699 1.087 1.3292.818 1.0819 1.529 2.2301 2.108 3.4577 1.051 2.2345 1.67 4.5793 1.851 7.0434.013.1811-.013.3665.058.5388v1.9342c-.045.0971-.071.1987-.071.3047.009.3267-.04.6491-.071.967-.048.4681-.115.9362-.207 1.3955-.151.786-.336 1.5677-.584 2.3316-.282.8788-.614 1.7399-1.007 2.5789-.3.6359-.641 1.2497-.999 1.8503-.499.8302-1.069 1.6074-1.683 2.3537-.451.5476-.95 1.051-1.454 1.5544-.375.3754-.773.7287-1.179 1.0687-.729.605-1.503 1.157-2.311 1.6515-.782.477-1.595.8965-2.43 1.2674-.884.393-1.798.7066-2.731.9671-1.356.371-2.739.605-4.14.6801-1.117.0618-2.235.0397-3.3531-.0884-.7246-.0839-1.4448-.1987-2.1561-.3532-1.5862-.3489-3.1061-.8876-4.5597-1.6118-.8881-.4416-1.7409-.9451-2.5494-1.5191-.6628-.4681-1.2946-.9715-1.8999-1.5103-.4816-.4283-.9367-.8832-1.3741-1.3557-.4639-.4946-.8881-1.0289-1.3034-1.5632 0-.0133 0-.0265 0-.0354.0751-.1015.1502-.2031.2253-.3047.464-.627.8837-1.285 1.2593-1.9651.2916-.5299.5567-1.0774.8041-1.6339.1458-.3311.2783-.6712.4197-1.0068.1635-.3886.2651-.8081.3933-1.2144.1458-.4548.2827-.9097.3711-1.3822.0707-.3842.2032-.7595.2386-1.1481.0353-.393.1105-.7772.1458-1.1658.0574-.658.1016-1.316.106-1.974.0089-.7153-.0574-1.4307-.1193-2.1417-.0486-.5917-.1502-1.1702-.2518-1.7487-.0972-.5564-.2342-1.1084-.3976-1.6516-.1459-.4946-.2917-.9891-.4684-1.4749-.3711-1.0112-.8262-1.9828-1.352-2.9189-.4109-.7331-.8616-1.4396-1.3785-2.102 0-.0089 0-.0177 0-.0309 1.0648-1.3955 2.271-2.6496 3.6495-3.7359 2.112-1.6693 4.4669-2.86599 7.0649-3.58137 1.3432-.37094 2.7084-.62265 4.1087-.66681.146 0 .305.00442.451-.06182zm-5.0726 18.04352v3.1398c0 .3886.0353.7684.0972 1.1526.1325.8346.4197 1.6074.9013 2.3051.4683.6756 1.0737 1.1967 1.7983 1.5809.8173.4283 1.6968.6315 2.6248.6624.954.0309 1.895-.0309 2.81-.3489.609-.2119 1.162-.5255 1.648-.9494.552-.4858.967-1.0731 1.272-1.7443.376-.8302.548-1.7001.557-2.5966.022-2.2212.013-4.438 0-6.6592 0-.9495-.853-1.6958-1.922-1.4264-.658.1634-1.096.7772-1.096 1.4617v6.3987c0 .3709-.026.7419-.124 1.104-.145.5652-.415 1.051-.936 1.3601-.42.2473-.888.3621-1.365.3886-.526.0265-1.052.0177-1.569-.1236-.605-.1679-1.0736-.5035-1.352-1.0643-.2297-.4592-.3093-.9582-.3048-1.4749 0-2.0181 0-4.0362 0-6.0543 0-.2164-.0089-.4327-.0221-.6491-.031-.4725-.2342-.8302-.6053-1.104-.4109-.3047-.8749-.3665-1.352-.2252-.6363.1854-1.0472.7816-1.0472 1.4749v3.4003z" fill="#f5a21c"/><path d="m68.7842 8.0441s0-.01767 0-.03092h1.9352v.03092c-.402 0-.8041 0-1.2018-.00884-.2474 0-.4904.03533-.7378.00884z" fill="#f190aa"/><path d="m68.7842 8.04409c.2475.0265.4905-.01325.7379-.00883.4021.00883.8041.00883 1.2018.00883.7202.07507 1.4403.12365 2.1561.23846.9455.15456 1.869.37094 2.7835.64473 1.2681.37977 2.4743.90969 3.6407 1.53232.9323.499 1.8116 1.0775 2.6466 1.7178.5877.4504 1.1399.9406 1.679 1.4484.4109.3887.7864.8082 1.1708 1.2233.3402.3709.6584.7595.9455 1.1746.0089.0133.0266.0221.0398.0309v.0309c-.0353.0354-.0751.0707-.106.1148-.3137.4461-.623.8921-.9058 1.3602-.5479.8964-1.0339 1.8282-1.4315 2.8041-.4374 1.0642-.7865 2.155-1.0383 3.2766-.2386 1.0687-.4065 2.1506-.4463 3.2457-.0309.9804-.0486 1.9607.053 2.9411.0575.5564.1282 1.1128.221 1.6648.2253 1.3203.5964 2.6054 1.0869 3.8507.402 1.0201.8792 2.0092 1.4668 2.9366.3535.5608.707 1.1172 1.1091 1.6427v.0353c-.2475.2871-.4596.6006-.7158.8832-.2121.2297-.3977.4858-.6142.711-.3755.393-.7555.786-1.1576 1.1526-.6097.552-1.2459 1.0686-1.9131 1.55-1.0339.7418-2.1296 1.3777-3.2828 1.9121-.9234.4283-1.8778.7816-2.8587 1.0598-.5346.1501-1.0692.2914-1.6082.3974-.4595.0884-.9279.1678-1.3962.2252-.8881.1104-1.7806.1546-2.6731.1502-.6186 0-1.2371-.0221-1.8557-.0883-1.2194-.1325-2.4256-.3533-3.6009-.7066-1.056-.3179-2.081-.7065-3.0707-1.1835-1.193-.574-2.3152-1.2717-3.3756-2.0622-.4772-.3577-.9323-.7463-1.3785-1.1526-.4286-.393-.8395-.7993-1.2372-1.2232-.3976-.4195-.7732-.8699-1.1222-1.3336-.0177-.1016.0707-.1501.1193-.2164.2606-.34.5037-.6933.7378-1.051 1.3255-2.0137 2.2578-4.1951 2.7968-6.5444.19-.817.3137-1.6472.3932-2.4862.0752-.7993.1238-1.603.0928-2.4023-.0221-.5696-.0618-1.1349-.1193-1.7001-.0751-.7507-.1988-1.4926-.3667-2.2212-.2828-1.263-.6804-2.4906-1.215-3.6741-.4153-.9273-.8837-1.8238-1.4404-2.6716-.3314-.5035-.676-1.0025-1.0339-1.4882.1856-.2208.3712-.4372.5567-.658 2.2313-2.6275 4.9574-4.5661 8.1828-5.80697 1.2548-.48134 2.5449-.82578 3.8704-1.03775.4904-.07948.9853-.13247 1.4801-.17222.2651-.02208.5347-.00883.7953-.06624zm1.9883 12.92551c-.4021.0088-.8042.0353-1.2018.106-.7423.1368-1.4448.3709-2.1208.7198-.5302.2737-1.0118.6049-1.4448 1.0024-.2342.2164-.4683.4504-.6804.6977-.3446.4063-.6363.8434-.8881 1.3071-.4551.839-.6937 1.7487-.7555 2.6937-.0442.6889 0 1.3778.159 2.0623.1856.8214.5302 1.5677.9721 2.2698.4374.6933.9985 1.2762 1.6568 1.7708.4772.3577.9853.6535 1.5332.8876.486.2031.9853.3488 1.5022.4504.4418.0839.8881.1281 1.3343.1192.4021-.0088.813-.0397 1.2151-.1236.539-.1104 1.056-.2738 1.5552-.4946.57-.2561 1.0825-.5961 1.5862-.9715.6848-.5122.813-1.5765.2165-2.23-.5302-.5785-1.489-.6404-2.0943-.159-1.078.8655-2.2842 1.1658-3.6318.786-1.1576-.3268-2.0059-1.0421-2.5627-2.0976-.3888-.7374-.4992-1.5279-.3755-2.3492.137-.8965.5523-1.656 1.2062-2.2831.919-.8832 2.0368-1.2055 3.2872-1.1128.7114.053 1.3432.3356 1.9131.7507.3624.265.7512.393 1.193.3179.6186-.1059 1.1134-.5564 1.2415-1.1393.1414-.6535-.0707-1.1923-.6009-1.5897-1.2459-.9406-2.6598-1.3822-4.215-1.3866z" fill="#e41e54"/><path d="m36.3273 29.7043c0-1.1481.0221-2.3007-.0089-3.4488-.022-.8744.5921-1.5765 1.3786-1.7399.9322-.1899 1.891.34 2.0942 1.391.031.159.0442.3268.0442.4902-.0044 2.2919 0 4.5881 0 6.88 0 .892-.6627 1.656-1.5155 1.7532-.9366.1059-1.7629-.4726-1.9573-1.3822-.0265-.1237-.0309-.2517-.0309-.3754 0-1.1923 0-2.3802 0-3.5725z" fill="#fff"/><path d="m40.1137 19.9938c.0486 1.1614-.9411 2.0622-2.0412 2.0534-1.1841-.0088-2.0501-.8567-2.0634-2.0755-.0088-1.0378.7997-2.1152 2.2489-2.0225.9632.0618 1.9308.9494 1.8557 2.049z" fill="#fff"/><path d="m85.7903 39.9274c-.402-.5255-.7555-1.0863-1.109-1.6428-.5876-.9317-1.0604-1.9165-1.4669-2.9366-.4904-1.2453-.8615-2.5259-1.0869-3.8507-.0927-.552-.159-1.1084-.2209-1.6648-.1016-.9803-.0883-1.9651-.053-2.941.0354-1.0907.2077-2.1726.4463-3.2457.2518-1.1217.6009-2.2124 1.0383-3.2767.3976-.9715.8836-1.9032 1.4315-2.8041.2828-.4637.5921-.9141.9058-1.3601.0309-.0397.0706-.0751.106-.1148.5169.6624.9676 1.3689 1.3785 2.102.5258.9362.9809 1.9077 1.352 2.9189.1767.4858.3225.9804.4684 1.4749.1634.5476.3004 1.0952.3976 1.6516.1016.5785.1988 1.1614.2518 1.7487.0575.7154.1282 1.4264.1193 2.1418-.0088.6579-.0486 1.3159-.106 1.9739-.0353.393-.1105.7772-.1458 1.1658-.0354.3886-.1679.764-.2386 1.1481-.0839.4726-.2253.9274-.3711 1.3822-.1282.4063-.2254.8258-.3933 1.2144-.1413.3356-.2695.6757-.4197 1.0069-.2474.5564-.5125 1.104-.8041 1.6339-.3756.68-.7953 1.338-1.2593 1.9651-.0751.1015-.1502.2031-.2253.3047z" fill="#e85612"/><path d="m95.9832 26.0613c0-1.1349 0-2.2654 0-3.4003 0-.6933.4153-1.2894 1.0472-1.4749.4771-.1413.9411-.0795 1.352.2252.3711.2738.5744.6315.6053 1.104.0132.2164.0221.4328.0221.6491v6.0543c0 .5167.0751 1.0157.3048 1.4749.2784.5609.7514.8965 1.3524 1.0643.517.1457 1.042.1501 1.568.1236.477-.022.946-.1413 1.365-.3886.522-.3047.787-.7948.937-1.3601.093-.3621.124-.733.124-1.104 0-2.1329 0-4.2658 0-6.3987 0-.6845.437-1.2983 1.096-1.4617 1.069-.2693 1.922.477 1.922 1.4264.008 2.2212.017 4.438 0 6.6592-.009.8965-.182 1.7708-.557 2.5966-.305.6712-.72 1.263-1.273 1.7443-.486.424-1.034.7375-1.648.9494-.914.318-1.851.3798-2.81.3489-.928-.0309-1.8024-.234-2.6242-.6624-.7246-.3798-1.33-.9008-1.7983-1.5809-.4816-.6977-.7688-1.4705-.9013-2.3051-.0619-.3842-.0972-.764-.0972-1.1526.0044-1.0466 0-2.0931 0-3.1397z" fill="#fff"/><path d="m10.5949 33.5462c-.0044 1.9166-1.60382 3.3517-3.41533 3.2855-1.80709-.0662-3.25188-1.5986-3.17677-3.4356.07069-1.7001 1.49781-3.1751 3.34467-3.1442 1.79825.0265 3.26513 1.5059 3.24303 3.2988z" fill="#3760a6"/><path d="m70.7769 20.9741c1.5553.0045 2.9691.4461 4.2151 1.3867.5302.4018.7379.9361.6009 1.5897-.1237.5873-.6186 1.0333-1.2416 1.1393-.4462.0751-.8306-.0486-1.1929-.3179-.57-.4196-1.2018-.6978-1.9131-.7508-1.2504-.0971-2.3638.2297-3.2873 1.1129-.6539.627-1.0692 1.3822-1.2062 2.283-.1237.8214-.0132 1.6118.3756 2.3493.5567 1.0554 1.405 1.7752 2.5626 2.0976 1.3476.3797 2.5538.075 3.6319-.7861.6009-.4813 1.5596-.4195 2.0943.159.5964.6536.4683 1.7178-.2165 2.2301-.5037.3753-1.0163.7153-1.5862.9715-.4993.2252-1.0206.3842-1.5553.4946-.402.0839-.8085.1192-1.215.1236-.4418.0088-.8925-.0353-1.3343-.1192-.517-.1016-1.0162-.2473-1.5023-.4505-.5522-.2296-1.0559-.5299-1.5331-.8876-.6583-.4901-1.2195-1.0775-1.6569-1.7708-.4418-.7021-.782-1.4528-.972-2.2698-.1547-.6844-.2033-1.3733-.1591-2.0622.0619-.945.3049-1.8503.7556-2.6937.2518-.4681.5434-.9009.888-1.3072.2121-.2517.4419-.4813.6805-.6977.433-.3974.9146-.7286 1.4448-1.0024.676-.3444 1.3785-.5829 2.1207-.7198.3977-.0751.7998-.1016 1.2018-.106z" fill="#fff"/></svg>