<svg width="180" height="60" viewBox="0 0 180 60" fill="none" xmlns="http://www.w3.org/2000/svg">
<rect width="180" height="60" fill="white"/>
<g clip-path="url(#clip0_20503_180281)">
<path d="M106.033 35.92V37.4539C106.033 40.902 104.644 44.2089 102.17 46.6471C99.6963 49.0853 96.3413 50.4551 92.8431 50.4551H90.4491C88.7169 50.4551 87.0017 50.1188 85.4014 49.4654C83.8011 48.812 82.347 47.8544 81.1221 46.6471C79.8973 45.4398 78.9257 44.0066 78.2628 42.4292C77.6 40.8518 77.2588 39.1612 77.2588 37.4539V35.92C77.2553 33.7158 77.8238 31.5473 78.9102 29.6206H78.9435V29.561C80.0888 27.5453 81.7587 25.8671 83.7811 24.6993C85.8035 23.5315 88.1052 22.9164 90.4491 22.9173H92.8476C96.3452 22.9189 99.6991 24.2895 102.172 26.7278C104.644 29.1661 106.033 32.4725 106.033 35.92V35.92ZM97.6083 38.223V34.9436C97.6083 33.3741 96.9758 31.8689 95.8498 30.7591C94.7239 29.6493 93.1968 29.0259 91.6045 29.0259C90.8159 29.0247 90.0349 29.1773 89.3063 29.4748C88.5778 29.7724 87.9162 30.2089 87.3595 30.7595C86.8008 31.3081 86.3578 31.9602 86.0559 32.6783C85.7541 33.3964 85.5993 34.1663 85.6006 34.9436V38.223C85.6004 39.0002 85.7556 39.7698 86.0572 40.4879C86.3589 41.2059 86.8011 41.8584 87.3587 42.4079C87.9162 42.9575 88.5782 43.3934 89.3067 43.6907C90.0352 43.9881 90.816 44.141 91.6045 44.1408C92.3929 44.1408 93.1736 43.9877 93.902 43.6903C94.6305 43.3929 95.2923 42.957 95.8498 42.4075C96.4073 41.858 96.8496 41.2056 97.1513 40.4877C97.453 39.7697 97.6083 39.0001 97.6083 38.223V38.223Z" fill="white"/>
<path d="M97.6085 34.9496V38.229C97.6085 39.7985 96.976 41.3037 95.85 42.4135C94.7241 43.5233 93.197 44.1468 91.6047 44.1468C90.8162 44.147 90.0354 43.994 89.3069 43.6967C88.5783 43.3994 87.9164 42.9635 87.3589 42.4139C86.8013 41.8644 86.3591 41.2119 86.0574 40.4939C85.7558 39.7758 85.6006 39.0062 85.6008 38.229V34.9496C85.5995 34.1723 85.7543 33.4024 86.0561 32.6843C86.358 31.9662 86.801 31.3141 87.3597 30.7655C87.9164 30.2149 88.578 29.7783 89.3065 29.4808C90.0351 29.1833 90.8161 29.0307 91.6047 29.0319C93.197 29.0319 94.7241 29.6553 95.85 30.7651C96.976 31.8749 97.6085 33.3801 97.6085 34.9496V34.9496Z" fill="#075586"/>
<path d="M78.9391 29.561V29.6206H78.9058C78.9151 29.5999 78.9262 29.5799 78.9391 29.561V29.561Z" fill="#1D1D1B"/>
<path d="M79.8782 17.247V10.9342C79.8782 10.9342 64.6342 7.31494 64.6342 19.8571V23.4763H60.0852V29.6206H64.6342V49.6517H72.8763V29.6177H78.9058C78.9151 29.5969 78.9263 29.5769 78.9391 29.558V23.4733H72.8763V19.8541C72.8763 19.8541 72.961 14.932 79.8782 17.247Z" fill="white"/>
<path d="M51.825 35.4713V49.6516H60.0232V35.4683C60.0232 35.4683 61.3041 23.2631 52.2938 22.9262C46.5471 22.7115 43.8249 25.7032 42.6015 27.8944V23.4733H34.1916V49.6516H42.6045V34.6261C42.6045 34.6261 43.0733 29.5341 47.087 29.239C51.1006 28.9439 51.825 32.5676 51.825 35.4713ZM109.556 16.3824V43.6176C109.556 46.6364 108.339 49.5315 106.173 51.6661C104.008 53.8007 101.07 55 98.0076 55H15.5479C12.4852 55 9.54795 53.8007 7.3823 51.6661C5.21664 49.5315 4 46.6364 4 43.6176V16.3824C4 13.3636 5.21664 10.4684 7.3823 8.33377C9.54795 6.19916 12.4852 4.99994 15.5479 4.99994H98.0107C101.073 5.00073 104.009 6.2003 106.174 8.33483C108.339 10.4694 109.556 13.3641 109.556 16.3824V16.3824ZM106.033 37.4538V35.92C106.033 32.4717 104.644 29.1646 102.17 26.7262C99.6965 24.2877 96.3416 22.9176 92.8431 22.9173H90.4492C88.1053 22.9163 85.8035 23.5315 83.7812 24.6993C81.7588 25.8671 80.0889 27.5453 78.9436 29.561V23.4762H72.8762V19.857C72.8762 19.857 72.9609 14.9379 79.8782 17.2469V10.9341C79.8782 10.9341 64.6342 7.31489 64.6342 19.857V23.4762H60.0852V29.6206H64.6342V49.6516H72.8762V29.6176H78.9058C77.8193 31.5442 77.2509 33.7127 77.2543 35.917V37.4508C77.2543 40.899 78.644 44.2059 81.1177 46.6441C83.5913 49.0823 86.9463 50.4521 90.4446 50.4521H92.8431C96.3409 50.4521 99.6954 49.0827 102.169 46.6451C104.643 44.2076 106.033 40.9014 106.033 37.4538V37.4538ZM31.6207 49.6516V23.4762H23.3378V49.6516H31.6207ZM32.528 15.3121C32.528 12.945 30.2596 11.0236 27.4679 11.0236C24.6762 11.0236 22.4077 12.945 22.4077 15.3121C22.4077 17.6792 24.6762 19.6006 27.4679 19.6006C30.2596 19.6006 32.528 17.6837 32.528 15.3151V15.3121ZM20.0727 43.7085C20.0727 41.9919 19.3809 40.3457 18.1495 39.1319C16.918 37.9181 15.2478 37.2362 13.5063 37.2362C11.7648 37.2362 10.0946 37.9181 8.86314 39.1319C7.6317 40.3457 6.9399 41.9919 6.9399 43.7085C6.9399 45.425 7.6317 47.0713 8.86314 48.2851C10.0946 49.4989 11.7648 50.1808 13.5063 50.1808C14.3689 50.1816 15.2231 50.0148 16.0203 49.6901C16.8175 49.3654 17.542 48.889 18.1523 48.2882C18.7627 47.6875 19.2469 46.9741 19.5775 46.1888C19.908 45.4035 20.0784 44.5617 20.0788 43.7115L20.0727 43.7085Z" fill="#075586"/>
<path d="M52.2939 22.9292C46.5471 22.7146 43.825 25.7063 42.6016 27.8975C42.3555 28.3397 42.1437 28.7996 41.9679 29.2733C42.1437 28.7996 42.3555 28.3397 42.6016 27.8975V23.4763H34.1917V49.6516H42.6046V34.9213L42.2658 33.1117L42.6046 34.9213V34.6232C42.6046 34.6232 43.0749 29.5312 47.087 29.236C51.0992 28.9409 51.8281 32.5616 51.8281 35.4654V49.6516H60.0263V35.4683C60.0263 35.4683 61.3042 23.2676 52.2939 22.9292Z" fill="white"/>
<path d="M31.6266 23.4763H23.3438V49.6546H31.6266V23.4763Z" fill="white"/>
<path d="M27.474 19.6036C30.2686 19.6036 32.5341 17.6836 32.5341 15.3151C32.5341 12.9466 30.2686 11.0266 27.474 11.0266C24.6793 11.0266 22.4138 12.9466 22.4138 15.3151C22.4138 17.6836 24.6793 19.6036 27.474 19.6036Z" fill="white"/>
<path d="M13.5125 50.1838C17.139 50.1838 20.0789 47.2861 20.0789 43.7115C20.0789 40.137 17.139 37.2392 13.5125 37.2392C9.88593 37.2392 6.94604 40.137 6.94604 43.7115C6.94604 47.2861 9.88593 50.1838 13.5125 50.1838Z" fill="white"/>
</g>
<defs>
<clipPath id="clip0_20503_180281">
<rect width="105.556" height="50" fill="white" transform="translate(4 5)"/>
</clipPath>
</defs>
</svg>
