<svg fill="none" height="60" viewBox="0 0 180 60" width="180" xmlns="http://www.w3.org/2000/svg" xmlns:xlink="http://www.w3.org/1999/xlink"><clipPath id="a"><path d="m0 0h71v53h-71z"/></clipPath><g clip-path="url(#a)"><path d="m10.106 10.14v-10.14h53.4827c1.0053 0 2.0032.210467 2.9114.642675.5905.281875 1.2409.676495 1.88 1.217695 1.0502.89073 1.7154 1.87917 2.134 2.67218.3252.62388.4859 1.31917.4859 2.02198v39.88717c0 .9922-.2467 1.9694-.755 2.8225-.2803.4736-.6428.9809-1.1062 1.4808-.8634.9321-1.7828 1.5184-2.5153 1.8829-.4934.2443-1.0316.3721-1.581.3721h-54.9514v-9.7679h-10.0911v-33.0846c3.36743 0 6.73859-.0038 10.106-.0075z" fill="#6aae07"/><g fill="#fefefe"><path d="m8.9624 23.2754h6.3499v6.423h-6.3499c0-2.1423 0-4.2845 0-6.423z"/><path d="m21.6024 17.9912 4.1261-.59c.4223-.0602.8036.2442.8036.6426v29.7359c0 .1767-.1533.3233-.3439.3233h-4.5372c-.1906 0-.3439-.1429-.3439-.3233l.0075-29.469c0-.1579.1233-.2932.2915-.3195z"/><path d="m20.9371 4.51367v5.64123h5.5912v-5.63371c-1.8649 0-3.7299-.00376-5.5912-.00752z"/><path d="m37.3444 26.2407v.4924c-.1084-.079-.213-.1616-.3177-.2443.1047-.0865.2093-.1692.3177-.2481z"/></g><path d="m37.3557 33.1146h-.0112v-.4247c0 .1429.0037.2857.0112.4247z" fill="#60c14c"/><path d="m59.2533 32.6899v.4247h-.0112c.0074-.139.0112-.2818.0112-.4247z" fill="#60c14c"/><path d="m59.571 26.4886c-.1047.0827-.2131.1654-.3177.2481v-.4999c.1046.0827.213.1654.3177.2518z" fill="#fefefe"/><path d="m64.5043 16.9576c0-7.32876-7.2544-13.26693-16.2055-13.26693-8.9512 0-16.2055 5.93817-16.2055 13.26693 0 .56-.0075 1.0786 0 1.6574v17.0365.3646c0 7.3287 7.2581 13.2707 16.2055 13.2707s16.2055-5.942 16.2055-13.2707c0-.1203-.0037-.2443-.0037-.3646h.0037v-17.0365c.0037-.5938 0-1.0974 0-1.6574zm-5.2511 15.7324c0 .1428-.0037.2856-.0112.4247-.2205 5.8893-5.0343 10.5909-10.9432 10.5909s-10.7227-4.7016-10.9432-10.5909c-.0075-.1391-.0112-.2819-.0112-.4247v-12.1695c0-6.0848 4.9072-11.01569 10.9544-11.01569s10.9544 4.93089 10.9544 11.01569z" fill="#fff"/></g></svg>