<svg width="180" height="60" viewBox="0 0 180 60" fill="none" xmlns="http://www.w3.org/2000/svg">
<rect width="180" height="60" fill="white"/>
<path d="M29.8435 21.0027C27.471 21.7399 23.6242 21.9501 21.148 22.0566V24.5874C24.6808 24.5874 25.6282 25.0078 25.6282 29.5399V52.7296C25.6282 57.1552 24.1512 57.4719 20.3071 57.4719V60H36.0655V57.4719C31.6372 57.4719 30.0564 57.1552 30.0564 52.5713V42.7155H30.1629C31.5335 45.5084 34.4329 49.1996 40.0187 49.1996C46.6065 49.1996 51.8757 42.9285 51.8757 34.7599C51.8757 26.8534 46.6065 21.0055 40.2289 21.0055C33.9059 21.0055 30.9001 25.8023 29.9527 28.0683H29.8462V21.0027H29.8435ZM38.7492 45.8251C33.8486 45.8251 30.3704 41.7654 30.3704 34.7572C30.3704 27.6943 34.5857 24.3744 38.7492 24.3744C43.9665 24.3744 46.7076 29.275 46.7076 34.809C46.7076 40.5014 43.9146 45.8251 38.7492 45.8251ZM52.3999 48.1457H68.737V45.6149C64.0439 45.6149 62.6761 45.1399 62.6761 40.0809V35.022C62.6761 30.965 63.6262 28.2758 65.3107 26.3784C66.3645 25.1662 67.7351 24.2161 68.7916 24.2161C69.6871 24.2161 69.8973 24.6911 69.8973 25.3218C69.8973 27.0609 70.5826 28.8 73.3237 28.8C75.1665 28.8 76.3268 27.2192 76.3268 25.6385C76.3268 23.0039 73.6922 21 71.0549 21C66.0478 21 63.203 25.6904 62.6761 26.9544H62.5696V21C59.9351 21.6853 55.6133 22.0538 52.3999 22.0538V24.5847C57.3524 24.5847 58.2506 26.1135 58.2506 29.4853V40.0782C58.2506 45.2436 56.88 45.6122 52.3999 45.6122V48.1457ZM89.2376 46.3002C84.2824 46.3002 81.0663 41.7681 81.0663 35.0766C81.0663 28.4369 84.2797 23.9049 89.2376 23.9049C94.1901 23.9049 97.4062 28.4369 97.4062 35.0766C97.4062 41.7654 94.1901 46.3002 89.2376 46.3002ZM102.572 35.1285C102.572 25.9579 96.4588 21.0027 89.2376 21.0027C82.0164 21.0027 75.9036 25.9552 75.9036 35.1285C75.9036 44.2444 82.0164 49.1996 89.2376 49.1996C96.4561 49.1996 102.572 44.2444 102.572 35.1285Z" fill="#010101"/>
<path d="M13.5036 42.9667H13.0832C12.5917 42.9667 12.4307 43.3735 12.4307 44.0151V46.0135C12.4307 46.5295 12.4853 47.0892 13.0832 47.0892H13.5036C14.1288 47.0892 14.1561 46.5323 14.1561 46.0135V44.0151C14.1588 43.3735 14.0496 42.9667 13.5036 42.9667ZM8.52657 42.9667H7.57375V47.0892H8.52657C8.90606 47.0892 9.30192 46.7507 9.30192 46.1637V43.6602C9.30192 43.2233 8.90606 42.9667 8.52657 42.9667ZM12.7992 36.2451C7.93959 36.2451 4 40.1847 4 45.0444C4 49.904 7.93959 53.8436 12.7992 53.8436C17.6589 53.8436 21.5985 49.904 21.5985 45.0444C21.5985 40.1847 17.6589 36.2451 12.7992 36.2451ZM10.323 46.4203C10.323 47.182 9.90255 48.1185 8.85418 48.1185H6.51446V41.891H8.85418C9.64319 41.891 10.323 42.7074 10.323 43.6438V46.4203ZM15.2045 46.393C15.2045 47.1547 14.7977 48.1185 13.7493 48.1185H12.8511C11.8027 48.1185 11.3959 47.152 11.3823 46.393V43.6329C11.3823 42.6964 12.0621 41.9047 12.8511 41.9047H13.7493C14.5383 41.9047 15.2045 42.6937 15.2045 43.6329V46.393ZM18.3796 42.9667V48.1212H17.334V42.9667H15.9443V41.9183H19.7665V42.9667H18.3796Z" fill="#CA4634"/>
</svg>
